<?xml version="1.0" encoding="UTF-8"?>
<svg xmlns="http://www.w3.org/2000/svg" xmlns:xlink="http://www.w3.org/1999/xlink" width="70px" height="70px" viewBox="0 0 70 70" version="1.1">
<g id="surface1">
<path style=" stroke:none;fill-rule:nonzero;fill:rgb(0%,0%,0%);fill-opacity:1;" d="M 33.671875 0.109375 C 33.203125 0.234375 32.660156 0.558594 32.386719 0.871094 C 31.988281 1.34375 31.867188 1.75 31.828125 2.699219 L 31.789062 3.578125 L 24.859375 5.871094 C 21.046875 7.132812 17.6875 8.285156 17.382812 8.421875 C 16.472656 8.867188 16.046875 9.386719 15.96875 10.15625 C 15.921875 10.570312 15.914062 10.578125 15.640625 10.617188 C 14.988281 10.726562 14.878906 10.757812 14.511719 10.949219 C 14.039062 11.207031 13.65625 11.652344 13.441406 12.203125 C 13.277344 12.617188 13.261719 12.746094 13.269531 14.582031 C 13.269531 16.410156 13.277344 16.550781 13.441406 16.964844 C 13.789062 17.835938 14.511719 18.394531 15.414062 18.496094 L 15.90625 18.550781 L 15.929688 41.082031 L 15.945312 63.605469 L 14.257812 63.636719 C 12.585938 63.660156 12.554688 63.660156 12.09375 63.878906 C 11.488281 64.167969 11.105469 64.539062 10.84375 65.132812 C 10.632812 65.589844 10.625 65.644531 10.59375 67.253906 L 10.5625 68.910156 L 58.347656 68.910156 L 58.316406 67.222656 C 58.292969 65.582031 58.285156 65.511719 58.09375 65.101562 C 57.828125 64.539062 57.320312 64.050781 56.777344 63.839844 C 56.398438 63.683594 56.179688 63.667969 54.699219 63.636719 L 53.042969 63.605469 L 53.042969 18.511719 L 53.347656 18.511719 C 54.28125 18.511719 55.230469 17.796875 55.527344 16.871094 C 55.664062 16.417969 55.679688 16.199219 55.65625 14.464844 C 55.640625 12.195312 55.59375 12.03125 54.917969 11.355469 C 54.46875 10.914062 53.9375 10.65625 53.472656 10.65625 C 53.136719 10.65625 53.074219 10.585938 52.988281 10.171875 C 52.882812 9.667969 52.546875 9.140625 52.164062 8.851562 C 51.511719 8.367188 50.460938 7.980469 43.851562 5.785156 L 37.101562 3.554688 L 37.101562 2.761719 C 37.101562 2.253906 37.054688 1.84375 36.976562 1.617188 C 36.835938 1.199219 36.414062 0.683594 36.003906 0.421875 C 35.398438 0.0390625 34.417969 -0.09375 33.671875 0.109375 Z M 47.714844 14.582031 L 47.714844 15.90625 L 34.480469 15.929688 L 21.234375 15.945312 L 21.234375 13.222656 L 34.480469 13.238281 L 47.714844 13.261719 Z M 25.84375 23.527344 C 25.835938 24.789062 25.808594 25.820312 25.785156 25.820312 C 25.761719 25.820312 24.734375 25.820312 23.488281 25.820312 L 21.234375 25.820312 L 21.234375 21.234375 L 25.859375 21.234375 Z M 31.8125 23.527344 L 31.8125 25.820312 L 27.144531 25.820312 L 27.144531 21.234375 L 31.8125 21.234375 Z M 41.765625 23.527344 L 41.765625 25.820312 L 37.101562 25.820312 L 37.101562 21.234375 L 41.765625 21.234375 Z M 47.753906 23.527344 L 47.753906 25.820312 L 43.089844 25.820312 L 43.089844 21.234375 L 47.753906 21.234375 Z M 25.835938 29.136719 C 25.851562 30.230469 25.84375 31.140625 25.828125 31.15625 C 25.8125 31.171875 24.773438 31.1875 23.511719 31.1875 L 21.234375 31.1875 L 21.234375 27.144531 L 25.8125 27.144531 Z M 31.8125 29.167969 L 31.8125 31.1875 L 29.5 31.171875 L 27.183594 31.148438 L 27.160156 29.246094 C 27.152344 28.203125 27.160156 27.300781 27.183594 27.246094 C 27.207031 27.167969 27.726562 27.144531 29.515625 27.144531 L 31.8125 27.144531 Z M 41.75 29.144531 L 41.726562 31.148438 L 37.140625 31.148438 L 37.117188 29.246094 C 37.109375 28.203125 37.117188 27.300781 37.140625 27.246094 C 37.164062 27.167969 37.683594 27.144531 39.472656 27.144531 L 41.765625 27.144531 Z M 47.714844 29.167969 L 47.714844 31.148438 L 45.40625 31.171875 L 43.089844 31.1875 L 43.089844 27.144531 L 45.40625 27.160156 L 47.714844 27.183594 Z M 25.820312 34.804688 L 25.820312 37.101562 L 21.234375 37.101562 L 21.234375 32.511719 L 25.820312 32.511719 Z M 31.8125 34.804688 L 31.8125 37.101562 L 27.144531 37.101562 L 27.144531 32.511719 L 31.8125 32.511719 Z M 41.765625 34.804688 L 41.765625 37.101562 L 37.101562 37.101562 L 37.101562 32.511719 L 41.765625 32.511719 Z M 47.753906 34.804688 L 47.753906 37.101562 L 43.089844 37.101562 L 43.089844 32.511719 L 47.753906 32.511719 Z M 47.753906 34.804688 "/>
</g>
</svg>
